<svg width="966" height="242" viewBox="0 0 966 242" fill="none" xmlns="http://www.w3.org/2000/svg">
<path d="M471.496 188.025L346.997 61.8666L304.207 18.8992L262.932 60.683L133.898 189.717L180.383 236.203L301.187 114.536L424.004 237.353L471.496 188.025Z" fill="#0008C3"/>
<path d="M46.7653 235.679C31.201 220.115 15.7205 204.635 0.184082 189.098C57.0578 132.197 113.904 75.3508 170.805 18.4492L217.386 65.0304C160.513 121.904 103.667 178.75 46.7653 235.652V235.679ZM141.462 131.946L126.372 116.856L123.276 119.952C128.324 125 133.345 130.021 138.366 135.042L141.462 131.946ZM173.037 100.343C167.988 95.2943 162.995 90.3014 157.947 85.2528L154.85 88.3489L169.941 103.439L173.037 100.343ZM109.943 163.52C104.838 158.416 99.8456 153.423 94.8528 148.43L91.7287 151.554L106.819 166.644L109.943 163.52ZM60.1539 182.99L75.2719 198.108L78.368 195.012C77.5312 194.175 76.7502 193.394 75.9413 192.585C71.9526 188.596 67.9918 184.635 64.0031 180.647C63.6684 180.312 63.3616 179.754 62.8316 180.284C61.967 181.177 61.0744 182.041 60.1539 182.962V182.99ZM204.639 68.7681C203.301 67.4292 202.045 66.174 200.79 64.9189C197.276 61.4044 193.761 57.8898 190.247 54.4032C189.996 54.1522 189.382 53.8733 189.27 53.9569C188.294 54.8216 187.374 55.7979 186.425 56.7462C191.53 61.8506 196.523 66.8435 201.543 71.8642L204.639 68.7681ZM192.032 81.4036C189.689 79.0606 187.457 76.8013 185.198 74.5977C185.059 74.4582 184.64 74.4304 184.529 74.5419C183.552 75.4345 182.632 76.3829 181.684 77.3591L188.908 84.5834L192.06 81.4315L192.032 81.4036ZM115.326 143.661C114.378 144.609 113.457 145.474 112.621 146.422C112.481 146.562 112.621 147.175 112.844 147.398C113.932 148.57 115.103 149.686 116.219 150.829C117.279 151.889 118.311 152.921 119.399 154.009L122.523 150.885L115.326 143.689V143.661ZM64.8957 194.203L61.7438 197.355L68.8844 204.495L72.0363 201.343L64.8957 194.203ZM90.0273 168.96C89.1347 169.852 88.3537 170.689 87.5169 171.442C86.9869 171.916 87.0985 172.251 87.6285 172.753C88.9952 174.064 90.3341 175.431 91.673 176.77C92.4818 177.578 93.3186 178.415 94.1554 179.252L97.2515 176.156C94.8528 173.757 92.5097 171.414 90.0273 168.932V168.96ZM159.536 99.4782C158.588 100.427 157.696 101.319 156.803 102.212C156.385 102.63 156.719 102.909 157.054 103.244C158.616 104.806 160.206 106.396 161.768 107.958C162.382 108.571 162.995 109.185 163.609 109.799L166.733 106.675L159.564 99.5061L159.536 99.4782ZM96.4705 162.684L93.3465 165.808L100.487 172.948L103.611 169.824L96.4705 162.684ZM154.097 119.338L146.957 112.197L143.861 115.294L151.001 122.434L154.097 119.338ZM113.123 160.257L116.219 157.161L109.106 150.048L106.01 153.144L113.123 160.257ZM198.252 75.1835L191.139 68.0708L188.099 71.1111L195.212 78.2238L198.252 75.1835ZM179.34 94.0949L172.228 86.9822L169.16 90.0504L176.272 97.1631L179.34 94.0949ZM160.429 112.978C158.142 110.691 155.966 108.488 153.735 106.34C153.54 106.145 152.982 106.061 152.842 106.173C151.894 107.009 151.029 107.93 150.109 108.878L157.333 116.102L160.429 113.006V112.978ZM124.921 134.205L132.062 141.346L135.13 138.277L127.99 131.137L124.921 134.205ZM84.616 188.819L77.4754 181.679L74.4351 184.719C76.8618 187.146 79.2048 189.489 81.5757 191.86L84.616 188.819ZM53.2365 220.199L46.0959 213.058L43.0555 216.099L50.1961 223.239L53.2365 220.199ZM147.766 125.642L140.625 118.501L137.557 121.569C139.956 123.968 142.299 126.311 144.697 128.71L147.766 125.642ZM118.645 140.481L125.758 147.594L128.798 144.553L121.686 137.441L118.645 140.481ZM90.9756 182.432L83.835 175.291L80.7389 178.387L87.8795 185.528L90.9756 182.432ZM58.5919 200.562L55.5237 203.63L62.6364 210.743L65.7046 207.675L58.5919 200.562ZM59.4008 214.007L52.2602 206.866L49.192 209.934L56.3326 217.075L59.4008 214.007ZM185.728 87.7353L178.559 80.5668L175.463 83.6629L182.632 90.8314L185.728 87.7353Z" fill="#0008C3"/>
<path d="M522.946 38.5459H548.269L582.182 121.32H583.521L617.433 38.5459H642.756V152.778H622.9V74.2993H621.84L590.27 152.444H575.433L543.863 74.132H542.803V152.778H522.946V38.5459ZM665.291 152.778V38.5459H739.586V55.8928H685.984V86.9051H735.738V104.252H685.984V135.432H740.032V152.778H665.291ZM760.698 152.778V38.5459H803.535C812.311 38.5459 819.673 40.0705 825.623 43.1197C831.61 46.1689 836.128 50.4451 839.177 55.9485C842.263 61.4147 843.806 67.792 843.806 75.0802C843.806 82.4057 842.245 88.7643 839.121 94.1561C836.035 99.5108 831.48 103.657 825.456 106.595C819.432 109.495 812.032 110.945 803.256 110.945H772.746V93.7657H800.467C805.599 93.7657 809.801 93.0592 813.073 91.6461C816.345 90.1959 818.762 88.095 820.324 85.3433C821.923 82.5544 822.723 79.1334 822.723 75.0802C822.723 71.0271 821.923 67.5688 820.324 64.7056C818.725 61.8052 816.29 59.6113 813.017 58.1239C809.745 56.5993 805.525 55.837 800.356 55.837H781.391V152.778H760.698ZM819.711 101.017L847.99 152.778H824.898L797.121 101.017H819.711ZM877.524 152.778H855.436L895.652 38.5459H921.198L961.469 152.778H939.381L908.871 61.9725H907.979L877.524 152.778ZM878.249 107.989H938.489V124.611H878.249V107.989Z" fill="#0008C3"/>
<path d="M523.959 184.922H526.711L533.18 200.723H533.403L539.872 184.922H542.623V203.958H540.467V189.495H540.281L534.332 203.958H532.25L526.302 189.495H526.116V203.958H523.959V184.922ZM555.945 198.12V189.681H558.139V203.958H555.945V201.541H555.796C555.462 202.266 554.941 202.882 554.235 203.391C553.529 203.892 552.636 204.143 551.558 204.143C550.666 204.143 549.873 203.948 549.179 203.558C548.485 203.161 547.939 202.566 547.543 201.773C547.146 200.974 546.948 199.967 546.948 198.752V189.681H549.141V198.604C549.141 199.645 549.433 200.475 550.015 201.095C550.604 201.714 551.354 202.024 552.264 202.024C552.81 202.024 553.364 201.885 553.928 201.606C554.498 201.327 554.975 200.9 555.36 200.323C555.75 199.747 555.945 199.013 555.945 198.12ZM564.35 184.922V203.958H562.156V184.922H564.35ZM574.577 189.681V191.54H567.178V189.681H574.577ZM569.334 186.26H571.528V199.868C571.528 200.487 571.618 200.952 571.797 201.262C571.983 201.566 572.219 201.77 572.504 201.875C572.795 201.975 573.102 202.024 573.424 202.024C573.666 202.024 573.864 202.012 574.019 201.987C574.174 201.956 574.298 201.931 574.391 201.913L574.837 203.883C574.688 203.939 574.481 203.995 574.214 204.05C573.948 204.112 573.61 204.143 573.201 204.143C572.581 204.143 571.974 204.01 571.379 203.744C570.791 203.477 570.301 203.071 569.911 202.526C569.526 201.981 569.334 201.293 569.334 200.463V186.26ZM577.876 203.958V189.681H580.07V203.958H577.876ZM578.992 187.301C578.564 187.301 578.195 187.156 577.886 186.864C577.582 186.573 577.43 186.223 577.43 185.814C577.43 185.405 577.582 185.055 577.886 184.764C578.195 184.472 578.564 184.327 578.992 184.327C579.419 184.327 579.785 184.472 580.088 184.764C580.398 185.055 580.553 185.405 580.553 185.814C580.553 186.223 580.398 186.573 580.088 186.864C579.785 187.156 579.419 187.301 578.992 187.301ZM584.088 203.958V189.681H586.207V191.911H586.393C586.69 191.149 587.17 190.557 587.833 190.136C588.496 189.709 589.293 189.495 590.222 189.495C591.164 189.495 591.948 189.709 592.574 190.136C593.206 190.557 593.698 191.149 594.052 191.911H594.2C594.566 191.174 595.114 190.588 595.845 190.155C596.577 189.715 597.453 189.495 598.476 189.495C599.752 189.495 600.797 189.894 601.608 190.694C602.42 191.487 602.826 192.723 602.826 194.402V203.958H600.632V194.402C600.632 193.349 600.344 192.596 599.768 192.144C599.192 191.691 598.513 191.465 597.732 191.465C596.728 191.465 595.951 191.769 595.399 192.376C594.848 192.977 594.572 193.739 594.572 194.663V203.958H592.341V194.179C592.341 193.368 592.078 192.714 591.551 192.218C591.025 191.716 590.346 191.465 589.516 191.465C588.946 191.465 588.413 191.617 587.917 191.921C587.427 192.224 587.031 192.646 586.727 193.185C586.43 193.718 586.281 194.334 586.281 195.035V203.958H584.088ZM612.637 204.255C611.348 204.255 610.217 203.948 609.244 203.335C608.277 202.721 607.521 201.863 606.976 200.76C606.437 199.657 606.167 198.368 606.167 196.893C606.167 195.406 606.437 194.108 606.976 192.999C607.521 191.89 608.277 191.028 609.244 190.415C610.217 189.802 611.348 189.495 612.637 189.495C613.925 189.495 615.053 189.802 616.02 190.415C616.993 191.028 617.749 191.89 618.288 192.999C618.833 194.108 619.106 195.406 619.106 196.893C619.106 198.368 618.833 199.657 618.288 200.76C617.749 201.863 616.993 202.721 616.02 203.335C615.053 203.948 613.925 204.255 612.637 204.255ZM612.637 202.284C613.616 202.284 614.421 202.033 615.053 201.532C615.685 201.03 616.153 200.37 616.457 199.552C616.76 198.734 616.912 197.848 616.912 196.893C616.912 195.939 616.76 195.05 616.457 194.226C616.153 193.402 615.685 192.736 615.053 192.227C614.421 191.719 613.616 191.465 612.637 191.465C611.658 191.465 610.852 191.719 610.22 192.227C609.588 192.736 609.12 193.402 608.816 194.226C608.513 195.05 608.361 195.939 608.361 196.893C608.361 197.848 608.513 198.734 608.816 199.552C609.12 200.37 609.588 201.03 610.22 201.532C610.852 202.033 611.658 202.284 612.637 202.284ZM627.845 204.255C626.655 204.255 625.605 203.954 624.694 203.353C623.783 202.746 623.071 201.891 622.556 200.788C622.042 199.679 621.785 198.368 621.785 196.856C621.785 195.357 622.042 194.055 622.556 192.952C623.071 191.849 623.786 190.997 624.704 190.396C625.621 189.795 626.68 189.495 627.882 189.495C628.812 189.495 629.546 189.65 630.085 189.96C630.631 190.263 631.046 190.61 631.331 191.001C631.622 191.385 631.848 191.701 632.009 191.949H632.195V184.922H634.389V203.958H632.27V201.764H632.009C631.848 202.024 631.619 202.353 631.321 202.749C631.024 203.14 630.6 203.49 630.048 203.8C629.497 204.103 628.762 204.255 627.845 204.255ZM628.143 202.284C629.023 202.284 629.766 202.055 630.373 201.597C630.981 201.132 631.442 200.491 631.758 199.673C632.074 198.848 632.232 197.897 632.232 196.819C632.232 195.753 632.077 194.821 631.768 194.021C631.458 193.216 630.999 192.59 630.392 192.144C629.785 191.691 629.035 191.465 628.143 191.465C627.213 191.465 626.439 191.704 625.819 192.181C625.205 192.652 624.744 193.293 624.434 194.105C624.13 194.911 623.979 195.815 623.979 196.819C623.979 197.835 624.133 198.759 624.443 199.589C624.759 200.413 625.224 201.07 625.838 201.559C626.457 202.043 627.226 202.284 628.143 202.284ZM642.912 204.292C642.007 204.292 641.186 204.122 640.449 203.781C639.712 203.434 639.126 202.935 638.692 202.284C638.258 201.628 638.042 200.834 638.042 199.905C638.042 199.087 638.203 198.424 638.525 197.916C638.847 197.402 639.278 196.999 639.817 196.708C640.356 196.416 640.951 196.199 641.602 196.057C642.258 195.908 642.918 195.79 643.581 195.704C644.449 195.592 645.152 195.509 645.691 195.453C646.237 195.391 646.633 195.289 646.881 195.146C647.135 195.004 647.262 194.756 647.262 194.402V194.328C647.262 193.411 647.011 192.698 646.509 192.19C646.013 191.682 645.261 191.428 644.251 191.428C643.203 191.428 642.382 191.657 641.787 192.116C641.193 192.574 640.774 193.064 640.533 193.585L638.451 192.841C638.822 191.973 639.318 191.298 639.938 190.815C640.564 190.325 641.245 189.984 641.983 189.792C642.726 189.594 643.457 189.495 644.176 189.495C644.635 189.495 645.161 189.551 645.756 189.662C646.357 189.767 646.937 189.987 647.494 190.322C648.058 190.657 648.526 191.162 648.898 191.837C649.27 192.513 649.456 193.417 649.456 194.551V203.958H647.262V202.024H647.151C647.002 202.334 646.754 202.666 646.407 203.019C646.06 203.372 645.598 203.672 645.022 203.92C644.446 204.168 643.742 204.292 642.912 204.292ZM643.247 202.322C644.114 202.322 644.845 202.151 645.44 201.81C646.041 201.47 646.494 201.03 646.797 200.491C647.107 199.951 647.262 199.384 647.262 198.79V196.782C647.169 196.893 646.965 196.996 646.649 197.089C646.339 197.175 645.979 197.253 645.57 197.321C645.168 197.383 644.774 197.439 644.39 197.488C644.012 197.532 643.705 197.569 643.47 197.6C642.9 197.674 642.367 197.795 641.871 197.962C641.382 198.123 640.985 198.368 640.681 198.697C640.384 199.019 640.235 199.459 640.235 200.017C640.235 200.779 640.517 201.355 641.081 201.745C641.651 202.13 642.373 202.322 643.247 202.322ZM655.653 184.922V203.958H653.459V184.922H655.653ZM667.33 203.958V184.922H678.818V186.967H669.635V193.399H678.223V195.443H669.635V201.913H678.967V203.958H667.33ZM694.35 189.681L689.07 203.958H686.839L681.56 189.681H683.939L687.88 201.058H688.029L691.97 189.681H694.35ZM701.012 204.292C700.107 204.292 699.286 204.122 698.548 203.781C697.811 203.434 697.226 202.935 696.792 202.284C696.358 201.628 696.141 200.834 696.141 199.905C696.141 199.087 696.302 198.424 696.624 197.916C696.947 197.402 697.377 196.999 697.916 196.708C698.456 196.416 699.05 196.199 699.701 196.057C700.358 195.908 701.018 195.79 701.681 195.704C702.548 195.592 703.252 195.509 703.791 195.453C704.336 195.391 704.733 195.289 704.981 195.146C705.235 195.004 705.362 194.756 705.362 194.402V194.328C705.362 193.411 705.111 192.698 704.609 192.19C704.113 191.682 703.36 191.428 702.35 191.428C701.303 191.428 700.482 191.657 699.887 192.116C699.292 192.574 698.874 193.064 698.632 193.585L696.55 192.841C696.922 191.973 697.418 191.298 698.037 190.815C698.663 190.325 699.345 189.984 700.082 189.792C700.826 189.594 701.557 189.495 702.276 189.495C702.734 189.495 703.261 189.551 703.856 189.662C704.457 189.767 705.036 189.987 705.594 190.322C706.158 190.657 706.626 191.162 706.997 191.837C707.369 192.513 707.555 193.417 707.555 194.551V203.958H705.362V202.024H705.25C705.101 202.334 704.853 202.666 704.506 203.019C704.159 203.372 703.698 203.672 703.122 203.92C702.545 204.168 701.842 204.292 701.012 204.292ZM701.346 202.322C702.214 202.322 702.945 202.151 703.54 201.81C704.141 201.47 704.593 201.03 704.897 200.491C705.207 199.951 705.362 199.384 705.362 198.79V196.782C705.269 196.893 705.064 196.996 704.748 197.089C704.438 197.175 704.079 197.253 703.67 197.321C703.267 197.383 702.874 197.439 702.489 197.488C702.112 197.532 701.805 197.569 701.569 197.6C700.999 197.674 700.466 197.795 699.971 197.962C699.481 198.123 699.084 198.368 698.781 198.697C698.483 199.019 698.335 199.459 698.335 200.017C698.335 200.779 698.617 201.355 699.181 201.745C699.751 202.13 700.473 202.322 701.346 202.322ZM713.752 184.922V203.958H711.559V184.922H713.752ZM726.768 198.12V189.681H728.961V203.958H726.768V201.541H726.619C726.284 202.266 725.764 202.882 725.057 203.391C724.351 203.892 723.459 204.143 722.38 204.143C721.488 204.143 720.695 203.948 720.001 203.558C719.307 203.161 718.762 202.566 718.365 201.773C717.968 200.974 717.77 199.967 717.77 198.752V189.681H719.964V198.604C719.964 199.645 720.255 200.475 720.837 201.095C721.426 201.714 722.176 202.024 723.087 202.024C723.632 202.024 724.187 201.885 724.751 201.606C725.321 201.327 725.798 200.9 726.182 200.323C726.572 199.747 726.768 199.013 726.768 198.12ZM737.18 204.292C736.275 204.292 735.454 204.122 734.717 203.781C733.98 203.434 733.394 202.935 732.96 202.284C732.526 201.628 732.31 200.834 732.31 199.905C732.31 199.087 732.471 198.424 732.793 197.916C733.115 197.402 733.546 196.999 734.085 196.708C734.624 196.416 735.219 196.199 735.869 196.057C736.526 195.908 737.186 195.79 737.849 195.704C738.717 195.592 739.42 195.509 739.959 195.453C740.504 195.391 740.901 195.289 741.149 195.146C741.403 195.004 741.53 194.756 741.53 194.402V194.328C741.53 193.411 741.279 192.698 740.777 192.19C740.281 191.682 739.529 191.428 738.519 191.428C737.471 191.428 736.65 191.657 736.055 192.116C735.461 192.574 735.042 193.064 734.801 193.585L732.719 192.841C733.09 191.973 733.586 191.298 734.206 190.815C734.832 190.325 735.513 189.984 736.251 189.792C736.994 189.594 737.725 189.495 738.444 189.495C738.903 189.495 739.429 189.551 740.024 189.662C740.625 189.767 741.205 189.987 741.762 190.322C742.326 190.657 742.794 191.162 743.166 191.837C743.538 192.513 743.724 193.417 743.724 194.551V203.958H741.53V202.024H741.418C741.27 202.334 741.022 202.666 740.675 203.019C740.328 203.372 739.866 203.672 739.29 203.92C738.714 204.168 738.01 204.292 737.18 204.292ZM737.515 202.322C738.382 202.322 739.113 202.151 739.708 201.81C740.309 201.47 740.762 201.03 741.065 200.491C741.375 199.951 741.53 199.384 741.53 198.79V196.782C741.437 196.893 741.233 196.996 740.917 197.089C740.607 197.175 740.247 197.253 739.838 197.321C739.436 197.383 739.042 197.439 738.658 197.488C738.28 197.532 737.973 197.569 737.738 197.6C737.168 197.674 736.635 197.795 736.139 197.962C735.65 198.123 735.253 198.368 734.949 198.697C734.652 199.019 734.503 199.459 734.503 200.017C734.503 200.779 734.785 201.355 735.349 201.745C735.919 202.13 736.641 202.322 737.515 202.322ZM753.936 189.681V191.54H746.538V189.681H753.936ZM748.694 186.26H750.888V199.868C750.888 200.487 750.977 200.952 751.157 201.262C751.343 201.566 751.578 201.77 751.864 201.875C752.155 201.975 752.462 202.024 752.784 202.024C753.025 202.024 753.224 202.012 753.379 201.987C753.534 201.956 753.657 201.931 753.75 201.913L754.197 203.883C754.048 203.939 753.84 203.995 753.574 204.05C753.307 204.112 752.97 204.143 752.561 204.143C751.941 204.143 751.334 204.01 750.739 203.744C750.15 203.477 749.661 203.071 749.27 202.526C748.886 201.981 748.694 201.293 748.694 200.463V186.26ZM757.236 203.958V189.681H759.43V203.958H757.236ZM758.351 187.301C757.924 187.301 757.555 187.156 757.245 186.864C756.942 186.573 756.79 186.223 756.79 185.814C756.79 185.405 756.942 185.055 757.245 184.764C757.555 184.472 757.924 184.327 758.351 184.327C758.779 184.327 759.144 184.472 759.448 184.764C759.758 185.055 759.913 185.405 759.913 185.814C759.913 186.223 759.758 186.573 759.448 186.864C759.144 187.156 758.779 187.301 758.351 187.301ZM769.247 204.255C767.958 204.255 766.827 203.948 765.855 203.335C764.888 202.721 764.132 201.863 763.587 200.76C763.048 199.657 762.778 198.368 762.778 196.893C762.778 195.406 763.048 194.108 763.587 192.999C764.132 191.89 764.888 191.028 765.855 190.415C766.827 189.802 767.958 189.495 769.247 189.495C770.536 189.495 771.664 189.802 772.63 190.415C773.603 191.028 774.359 191.89 774.898 192.999C775.444 194.108 775.716 195.406 775.716 196.893C775.716 198.368 775.444 199.657 774.898 200.76C774.359 201.863 773.603 202.721 772.63 203.335C771.664 203.948 770.536 204.255 769.247 204.255ZM769.247 202.284C770.226 202.284 771.032 202.033 771.664 201.532C772.296 201.03 772.764 200.37 773.067 199.552C773.371 198.734 773.523 197.848 773.523 196.893C773.523 195.939 773.371 195.05 773.067 194.226C772.764 193.402 772.296 192.736 771.664 192.227C771.032 191.719 770.226 191.465 769.247 191.465C768.268 191.465 767.463 191.719 766.831 192.227C766.198 192.736 765.731 193.402 765.427 194.226C765.123 195.05 764.972 195.939 764.972 196.893C764.972 197.848 765.123 198.734 765.427 199.552C765.731 200.37 766.198 201.03 766.831 201.532C767.463 202.033 768.268 202.284 769.247 202.284ZM781.258 195.369V203.958H779.065V189.681H781.184V191.911H781.37C781.705 191.186 782.213 190.604 782.894 190.164C783.576 189.718 784.456 189.495 785.534 189.495C786.501 189.495 787.346 189.693 788.071 190.09C788.796 190.48 789.36 191.075 789.763 191.874C790.166 192.667 790.367 193.671 790.367 194.886V203.958H788.174V195.035C788.174 193.913 787.882 193.039 787.3 192.413C786.718 191.781 785.918 191.465 784.902 191.465C784.202 191.465 783.576 191.617 783.024 191.921C782.479 192.224 782.048 192.667 781.732 193.25C781.416 193.832 781.258 194.539 781.258 195.369ZM523.959 235.958V216.922H530.391C531.879 216.922 533.099 217.176 534.054 217.684C535.008 218.186 535.714 218.877 536.173 219.757C536.631 220.637 536.861 221.637 536.861 222.759C536.861 223.88 536.631 224.875 536.173 225.743C535.714 226.61 535.011 227.292 534.063 227.787C533.115 228.277 531.903 228.522 530.429 228.522H525.224V226.44H530.354C531.37 226.44 532.188 226.291 532.808 225.993C533.434 225.696 533.886 225.275 534.165 224.729C534.45 224.178 534.593 223.521 534.593 222.759C534.593 221.997 534.45 221.331 534.165 220.761C533.88 220.19 533.425 219.75 532.799 219.441C532.173 219.125 531.346 218.967 530.317 218.967H526.265V235.958H523.959ZM532.92 227.406L537.604 235.958H534.927L530.317 227.406H532.92ZM549.402 230.12V221.681H551.595V235.958H549.402V233.541H549.253C548.918 234.266 548.398 234.882 547.691 235.391C546.985 235.892 546.093 236.143 545.014 236.143C544.122 236.143 543.329 235.948 542.635 235.558C541.941 235.161 541.396 234.566 540.999 233.773C540.603 232.974 540.404 231.967 540.404 230.752V221.681H542.598V230.604C542.598 231.645 542.889 232.475 543.472 233.095C544.06 233.714 544.81 234.024 545.721 234.024C546.266 234.024 546.821 233.885 547.385 233.606C547.955 233.327 548.432 232.9 548.816 232.323C549.206 231.747 549.402 231.013 549.402 230.12ZM565.726 224.878L563.755 225.436C563.631 225.107 563.448 224.788 563.207 224.478C562.971 224.162 562.649 223.902 562.24 223.698C561.831 223.493 561.308 223.391 560.669 223.391C559.796 223.391 559.067 223.592 558.485 223.995C557.909 224.392 557.621 224.897 557.621 225.51C557.621 226.055 557.819 226.486 558.215 226.802C558.612 227.118 559.232 227.382 560.074 227.592L562.194 228.113C563.47 228.423 564.421 228.897 565.047 229.535C565.673 230.167 565.986 230.982 565.986 231.979C565.986 232.797 565.75 233.528 565.279 234.173C564.815 234.817 564.164 235.325 563.328 235.697C562.491 236.069 561.518 236.255 560.409 236.255C558.953 236.255 557.748 235.939 556.793 235.307C555.839 234.675 555.235 233.752 554.981 232.537L557.063 232.017C557.261 232.785 557.636 233.361 558.188 233.745C558.745 234.13 559.473 234.322 560.372 234.322C561.394 234.322 562.206 234.105 562.807 233.671C563.414 233.231 563.718 232.704 563.718 232.091C563.718 231.595 563.544 231.18 563.197 230.845C562.85 230.505 562.318 230.251 561.599 230.083L559.219 229.526C557.912 229.216 556.951 228.735 556.338 228.085C555.731 227.428 555.427 226.607 555.427 225.622C555.427 224.816 555.653 224.104 556.106 223.484C556.564 222.864 557.187 222.378 557.974 222.025C558.767 221.671 559.665 221.495 560.669 221.495C562.082 221.495 563.191 221.805 563.997 222.424C564.809 223.044 565.385 223.862 565.726 224.878ZM579.401 224.878L577.43 225.436C577.306 225.107 577.123 224.788 576.882 224.478C576.646 224.162 576.324 223.902 575.915 223.698C575.506 223.493 574.983 223.391 574.344 223.391C573.471 223.391 572.742 223.592 572.16 223.995C571.584 224.392 571.296 224.897 571.296 225.51C571.296 226.055 571.494 226.486 571.89 226.802C572.287 227.118 572.907 227.382 573.749 227.592L575.869 228.113C577.145 228.423 578.096 228.897 578.722 229.535C579.348 230.167 579.661 230.982 579.661 231.979C579.661 232.797 579.425 233.528 578.954 234.173C578.49 234.817 577.839 235.325 577.003 235.697C576.166 236.069 575.193 236.255 574.084 236.255C572.628 236.255 571.423 235.939 570.468 235.307C569.514 234.675 568.91 233.752 568.656 232.537L570.738 232.017C570.936 232.785 571.311 233.361 571.863 233.745C572.42 234.13 573.148 234.322 574.047 234.322C575.069 234.322 575.881 234.105 576.482 233.671C577.089 233.231 577.393 232.704 577.393 232.091C577.393 231.595 577.219 231.18 576.872 230.845C576.525 230.505 575.993 230.251 575.274 230.083L572.894 229.526C571.587 229.216 570.626 228.735 570.013 228.085C569.406 227.428 569.102 226.607 569.102 225.622C569.102 224.816 569.328 224.104 569.781 223.484C570.239 222.864 570.862 222.378 571.649 222.025C572.442 221.671 573.34 221.495 574.344 221.495C575.757 221.495 576.866 221.805 577.672 222.424C578.484 223.044 579.06 223.862 579.401 224.878ZM582.963 235.958V221.681H585.156V235.958H582.963ZM584.078 219.301C583.651 219.301 583.282 219.156 582.972 218.864C582.669 218.573 582.517 218.223 582.517 217.814C582.517 217.405 582.669 217.055 582.972 216.764C583.282 216.472 583.651 216.327 584.078 216.327C584.506 216.327 584.871 216.472 585.175 216.764C585.485 217.055 585.64 217.405 585.64 217.814C585.64 218.223 585.485 218.573 585.175 218.864C584.871 219.156 584.506 219.301 584.078 219.301ZM593.375 236.292C592.471 236.292 591.65 236.122 590.912 235.781C590.175 235.434 589.589 234.935 589.156 234.284C588.722 233.628 588.505 232.834 588.505 231.905C588.505 231.087 588.666 230.424 588.988 229.916C589.31 229.402 589.741 228.999 590.28 228.708C590.819 228.416 591.414 228.199 592.065 228.057C592.722 227.908 593.382 227.79 594.045 227.704C594.912 227.592 595.615 227.509 596.155 227.453C596.7 227.391 597.096 227.289 597.344 227.146C597.598 227.004 597.725 226.756 597.725 226.402V226.328C597.725 225.411 597.474 224.698 596.972 224.19C596.477 223.682 595.724 223.428 594.714 223.428C593.667 223.428 592.846 223.657 592.251 224.116C591.656 224.574 591.238 225.064 590.996 225.585L588.914 224.841C589.286 223.973 589.781 223.298 590.401 222.815C591.027 222.325 591.709 221.984 592.446 221.792C593.189 221.594 593.921 221.495 594.639 221.495C595.098 221.495 595.625 221.551 596.22 221.662C596.821 221.767 597.4 221.987 597.958 222.322C598.522 222.657 598.989 223.162 599.361 223.837C599.733 224.513 599.919 225.417 599.919 226.551V235.958H597.725V234.024H597.614C597.465 234.334 597.217 234.666 596.87 235.019C596.523 235.372 596.062 235.672 595.485 235.92C594.909 236.168 594.206 236.292 593.375 236.292ZM593.71 234.322C594.578 234.322 595.309 234.151 595.904 233.81C596.505 233.47 596.957 233.03 597.261 232.491C597.57 231.951 597.725 231.384 597.725 230.79V228.782C597.632 228.893 597.428 228.996 597.112 229.089C596.802 229.175 596.443 229.253 596.034 229.321C595.631 229.383 595.237 229.439 594.853 229.488C594.475 229.532 594.169 229.569 593.933 229.6C593.363 229.674 592.83 229.795 592.334 229.962C591.845 230.123 591.448 230.368 591.145 230.697C590.847 231.019 590.698 231.459 590.698 232.017C590.698 232.779 590.98 233.355 591.544 233.745C592.114 234.13 592.836 234.322 593.71 234.322ZM606.116 227.369V235.958H603.923V221.681H606.042V223.911H606.228C606.562 223.186 607.071 222.604 607.752 222.164C608.434 221.718 609.314 221.495 610.392 221.495C611.359 221.495 612.204 221.693 612.929 222.09C613.654 222.48 614.218 223.075 614.621 223.874C615.024 224.667 615.225 225.671 615.225 226.886V235.958H613.032V227.035C613.032 225.913 612.74 225.039 612.158 224.413C611.575 223.781 610.776 223.465 609.76 223.465C609.06 223.465 608.434 223.617 607.882 223.921C607.337 224.224 606.906 224.667 606.59 225.25C606.274 225.832 606.116 226.539 606.116 227.369ZM627.413 226.774V228.819H619.085V226.774H627.413ZM633.466 216.922V235.958H631.273V216.922H633.466ZM641.685 236.292C640.78 236.292 639.959 236.122 639.222 235.781C638.485 235.434 637.899 234.935 637.465 234.284C637.032 233.628 636.815 232.834 636.815 231.905C636.815 231.087 636.976 230.424 637.298 229.916C637.62 229.402 638.051 228.999 638.59 228.708C639.129 228.416 639.724 228.199 640.375 228.057C641.031 227.908 641.691 227.79 642.354 227.704C643.222 227.592 643.925 227.509 644.464 227.453C645.01 227.391 645.406 227.289 645.654 227.146C645.908 227.004 646.035 226.756 646.035 226.402V226.328C646.035 225.411 645.784 224.698 645.282 224.19C644.787 223.682 644.034 223.428 643.024 223.428C641.976 223.428 641.155 223.657 640.56 224.116C639.966 224.574 639.547 225.064 639.306 225.585L637.224 224.841C637.595 223.973 638.091 223.298 638.711 222.815C639.337 222.325 640.018 221.984 640.756 221.792C641.499 221.594 642.23 221.495 642.949 221.495C643.408 221.495 643.935 221.551 644.529 221.662C645.13 221.767 645.71 221.987 646.268 222.322C646.831 222.657 647.299 223.162 647.671 223.837C648.043 224.513 648.229 225.417 648.229 226.551V235.958H646.035V234.024H645.924C645.775 234.334 645.527 234.666 645.18 235.019C644.833 235.372 644.371 235.672 643.795 235.92C643.219 236.168 642.516 236.292 641.685 236.292ZM642.02 234.322C642.887 234.322 643.618 234.151 644.213 233.81C644.814 233.47 645.267 233.03 645.57 232.491C645.88 231.951 646.035 231.384 646.035 230.79V228.782C645.942 228.893 645.738 228.996 645.422 229.089C645.112 229.175 644.752 229.253 644.343 229.321C643.941 229.383 643.547 229.439 643.163 229.488C642.785 229.532 642.478 229.569 642.243 229.6C641.673 229.674 641.14 229.795 640.644 229.962C640.155 230.123 639.758 230.368 639.454 230.697C639.157 231.019 639.008 231.459 639.008 232.017C639.008 232.779 639.29 233.355 639.854 233.745C640.424 234.13 641.146 234.322 642.02 234.322ZM654.426 227.369V235.958H652.232V221.681H654.352V223.911H654.538C654.872 223.186 655.38 222.604 656.062 222.164C656.744 221.718 657.623 221.495 658.702 221.495C659.668 221.495 660.514 221.693 661.239 222.09C661.964 222.48 662.528 223.075 662.931 223.874C663.334 224.667 663.535 225.671 663.535 226.886V235.958H661.341V227.035C661.341 225.913 661.05 225.039 660.468 224.413C659.885 223.781 659.086 223.465 658.07 223.465C657.369 223.465 656.744 223.617 656.192 223.921C655.647 224.224 655.216 224.667 654.9 225.25C654.584 225.832 654.426 226.539 654.426 227.369ZM673.306 241.609C672.246 241.609 671.336 241.472 670.573 241.2C669.811 240.933 669.176 240.58 668.668 240.14C668.166 239.706 667.766 239.242 667.469 238.746L669.216 237.519C669.415 237.779 669.666 238.077 669.969 238.411C670.273 238.752 670.688 239.046 671.215 239.294C671.748 239.548 672.445 239.675 673.306 239.675C674.459 239.675 675.41 239.397 676.16 238.839C676.909 238.281 677.284 237.408 677.284 236.218V233.318H677.098C676.937 233.578 676.708 233.9 676.411 234.284C676.119 234.662 675.698 235 675.146 235.298C674.601 235.589 673.864 235.734 672.934 235.734C671.782 235.734 670.747 235.462 669.83 234.917C668.919 234.371 668.197 233.578 667.664 232.537C667.137 231.496 666.874 230.232 666.874 228.745C666.874 227.282 667.131 226.009 667.646 224.925C668.16 223.834 668.876 222.991 669.793 222.396C670.71 221.795 671.769 221.495 672.971 221.495C673.901 221.495 674.638 221.65 675.184 221.96C675.735 222.263 676.157 222.61 676.448 223.001C676.745 223.385 676.974 223.701 677.136 223.949H677.359V221.681H679.478V236.366C679.478 237.593 679.199 238.591 678.641 239.359C678.09 240.134 677.346 240.701 676.411 241.06C675.481 241.426 674.446 241.609 673.306 241.609ZM673.232 233.764C674.112 233.764 674.855 233.563 675.463 233.16C676.07 232.757 676.531 232.178 676.847 231.422C677.163 230.666 677.321 229.761 677.321 228.708C677.321 227.679 677.167 226.771 676.857 225.984C676.547 225.197 676.088 224.581 675.481 224.135C674.874 223.688 674.124 223.465 673.232 223.465C672.302 223.465 671.528 223.701 670.908 224.172C670.295 224.643 669.833 225.275 669.523 226.068C669.219 226.861 669.068 227.741 669.068 228.708C669.068 229.699 669.223 230.576 669.532 231.338C669.848 232.094 670.313 232.689 670.927 233.123C671.546 233.55 672.315 233.764 673.232 233.764ZM692.491 230.12V221.681H694.684V235.958H692.491V233.541H692.342C692.007 234.266 691.487 234.882 690.78 235.391C690.074 235.892 689.182 236.143 688.103 236.143C687.211 236.143 686.418 235.948 685.724 235.558C685.03 235.161 684.485 234.566 684.088 233.773C683.692 232.974 683.493 231.967 683.493 230.752V221.681H685.687V230.604C685.687 231.645 685.978 232.475 686.561 233.095C687.149 233.714 687.899 234.024 688.81 234.024C689.355 234.024 689.91 233.885 690.474 233.606C691.044 233.327 691.521 232.9 691.905 232.323C692.295 231.747 692.491 231.013 692.491 230.12ZM702.903 236.292C701.998 236.292 701.177 236.122 700.44 235.781C699.703 235.434 699.117 234.935 698.683 234.284C698.25 233.628 698.033 232.834 698.033 231.905C698.033 231.087 698.194 230.424 698.516 229.916C698.838 229.402 699.269 228.999 699.808 228.708C700.347 228.416 700.942 228.199 701.593 228.057C702.249 227.908 702.909 227.79 703.572 227.704C704.44 227.592 705.143 227.509 705.682 227.453C706.228 227.391 706.624 227.289 706.872 227.146C707.126 227.004 707.253 226.756 707.253 226.402V226.328C707.253 225.411 707.002 224.698 706.5 224.19C706.004 223.682 705.252 223.428 704.242 223.428C703.194 223.428 702.373 223.657 701.778 224.116C701.184 224.574 700.765 225.064 700.524 225.585L698.442 224.841C698.813 223.973 699.309 223.298 699.929 222.815C700.555 222.325 701.236 221.984 701.974 221.792C702.717 221.594 703.448 221.495 704.167 221.495C704.626 221.495 705.152 221.551 705.747 221.662C706.348 221.767 706.928 221.987 707.485 222.322C708.049 222.657 708.517 223.162 708.889 223.837C709.261 224.513 709.447 225.417 709.447 226.551V235.958H707.253V234.024H707.142C706.993 234.334 706.745 234.666 706.398 235.019C706.051 235.372 705.589 235.672 705.013 235.92C704.437 236.168 703.733 236.292 702.903 236.292ZM703.238 234.322C704.105 234.322 704.836 234.151 705.431 233.81C706.032 233.47 706.485 233.03 706.788 232.491C707.098 231.951 707.253 231.384 707.253 230.79V228.782C707.16 228.893 706.956 228.996 706.64 229.089C706.33 229.175 705.97 229.253 705.561 229.321C705.159 229.383 704.765 229.439 704.381 229.488C704.003 229.532 703.696 229.569 703.461 229.6C702.891 229.674 702.358 229.795 701.862 229.962C701.373 230.123 700.976 230.368 700.672 230.697C700.375 231.019 700.226 231.459 700.226 232.017C700.226 232.779 700.508 233.355 701.072 233.745C701.642 234.13 702.364 234.322 703.238 234.322ZM719.213 241.609C718.154 241.609 717.243 241.472 716.481 241.2C715.718 240.933 715.083 240.58 714.575 240.14C714.073 239.706 713.673 239.242 713.376 238.746L715.123 237.519C715.322 237.779 715.573 238.077 715.876 238.411C716.18 238.752 716.595 239.046 717.122 239.294C717.655 239.548 718.352 239.675 719.213 239.675C720.366 239.675 721.317 239.397 722.067 238.839C722.816 238.281 723.191 237.408 723.191 236.218V233.318H723.005C722.844 233.578 722.615 233.9 722.318 234.284C722.026 234.662 721.605 235 721.054 235.298C720.508 235.589 719.771 235.734 718.841 235.734C717.689 235.734 716.654 235.462 715.737 234.917C714.826 234.371 714.104 233.578 713.571 232.537C713.045 231.496 712.781 230.232 712.781 228.745C712.781 227.282 713.038 226.009 713.553 224.925C714.067 223.834 714.783 222.991 715.7 222.396C716.617 221.795 717.676 221.495 718.879 221.495C719.808 221.495 720.545 221.65 721.091 221.96C721.642 222.263 722.064 222.61 722.355 223.001C722.652 223.385 722.882 223.701 723.043 223.949H723.266V221.681H725.385V236.366C725.385 237.593 725.106 238.591 724.548 239.359C723.997 240.134 723.253 240.701 722.318 241.06C721.388 241.426 720.353 241.609 719.213 241.609ZM719.139 233.764C720.019 233.764 720.762 233.563 721.37 233.16C721.977 232.757 722.438 232.178 722.755 231.422C723.071 230.666 723.229 229.761 723.229 228.708C723.229 227.679 723.074 226.771 722.764 225.984C722.454 225.197 721.995 224.581 721.388 224.135C720.781 223.688 720.031 223.465 719.139 223.465C718.209 223.465 717.435 223.701 716.815 224.172C716.202 224.643 715.74 225.275 715.43 226.068C715.127 226.861 714.975 227.741 714.975 228.708C714.975 229.699 715.13 230.576 715.439 231.338C715.756 232.094 716.22 232.689 716.834 233.123C717.453 233.55 718.222 233.764 719.139 233.764ZM735.386 236.255C734.011 236.255 732.824 235.951 731.826 235.344C730.835 234.731 730.07 233.875 729.53 232.779C728.998 231.676 728.731 230.393 728.731 228.931C728.731 227.468 728.998 226.179 729.53 225.064C730.07 223.942 730.819 223.069 731.78 222.443C732.746 221.811 733.874 221.495 735.163 221.495C735.907 221.495 736.641 221.619 737.366 221.867C738.091 222.114 738.751 222.517 739.346 223.075C739.941 223.626 740.415 224.358 740.768 225.268C741.121 226.179 741.298 227.301 741.298 228.633V229.563H730.293V227.667H739.067C739.067 226.861 738.906 226.142 738.584 225.51C738.268 224.878 737.815 224.379 737.227 224.014C736.644 223.648 735.956 223.465 735.163 223.465C734.289 223.465 733.533 223.682 732.895 224.116C732.263 224.543 731.777 225.101 731.436 225.789C731.095 226.477 730.925 227.214 730.925 228.001V229.265C730.925 230.343 731.111 231.257 731.482 232.007C731.86 232.751 732.384 233.318 733.053 233.708C733.722 234.092 734.5 234.284 735.386 234.284C735.962 234.284 736.483 234.204 736.948 234.043C737.419 233.875 737.825 233.628 738.165 233.299C738.506 232.965 738.769 232.549 738.955 232.054L741.075 232.649C740.852 233.367 740.477 233.999 739.95 234.545C739.423 235.084 738.773 235.505 737.998 235.809C737.223 236.106 736.353 236.255 735.386 236.255ZM753.074 235.958H750.658L757.647 216.922H760.027L767.016 235.958H764.6L758.911 219.933H758.763L753.074 235.958ZM753.966 228.522H763.707V230.567H753.966V228.522ZM769.684 235.958V221.681H771.803V223.837H771.952C772.212 223.131 772.683 222.557 773.365 222.118C774.046 221.678 774.815 221.458 775.67 221.458C775.831 221.458 776.032 221.461 776.274 221.467C776.516 221.473 776.698 221.482 776.822 221.495V223.726C776.748 223.707 776.578 223.679 776.311 223.642C776.051 223.599 775.775 223.577 775.484 223.577C774.79 223.577 774.17 223.722 773.625 224.014C773.086 224.299 772.658 224.695 772.342 225.203C772.032 225.705 771.878 226.279 771.878 226.923V235.958H769.684ZM784.788 236.255C783.45 236.255 782.297 235.939 781.33 235.307C780.364 234.675 779.62 233.804 779.1 232.695C778.579 231.586 778.319 230.319 778.319 228.893C778.319 227.443 778.585 226.164 779.118 225.055C779.657 223.939 780.407 223.069 781.368 222.443C782.334 221.811 783.462 221.495 784.751 221.495C785.755 221.495 786.659 221.681 787.465 222.052C788.271 222.424 788.93 222.945 789.445 223.614C789.959 224.283 790.278 225.064 790.402 225.956H788.209C788.041 225.306 787.669 224.729 787.093 224.227C786.523 223.719 785.755 223.465 784.788 223.465C783.933 223.465 783.183 223.688 782.539 224.135C781.9 224.574 781.402 225.197 781.042 226.003C780.689 226.802 780.512 227.741 780.512 228.819C780.512 229.922 780.686 230.883 781.033 231.7C781.386 232.518 781.882 233.154 782.52 233.606C783.165 234.058 783.921 234.284 784.788 234.284C785.358 234.284 785.876 234.185 786.34 233.987C786.805 233.789 787.199 233.504 787.521 233.132C787.843 232.76 788.072 232.314 788.209 231.793H790.402C790.278 232.636 789.971 233.395 789.482 234.071C788.999 234.74 788.357 235.273 787.558 235.669C786.765 236.06 785.841 236.255 784.788 236.255ZM795.802 227.369V235.958H793.609V216.922H795.802V223.911H795.988C796.323 223.174 796.825 222.588 797.494 222.155C798.169 221.715 799.068 221.495 800.19 221.495C801.162 221.495 802.014 221.69 802.746 222.08C803.477 222.465 804.044 223.056 804.447 223.856C804.856 224.649 805.06 225.659 805.06 226.886V235.958H802.866V227.035C802.866 225.901 802.572 225.024 801.983 224.404C801.401 223.778 800.592 223.465 799.558 223.465C798.839 223.465 798.194 223.617 797.624 223.921C797.06 224.224 796.614 224.667 796.286 225.25C795.964 225.832 795.802 226.539 795.802 227.369ZM809.073 235.958V221.681H811.267V235.958H809.073ZM810.188 219.301C809.761 219.301 809.392 219.156 809.082 218.864C808.779 218.573 808.627 218.223 808.627 217.814C808.627 217.405 808.779 217.055 809.082 216.764C809.392 216.472 809.761 216.327 810.188 216.327C810.616 216.327 810.982 216.472 811.285 216.764C811.595 217.055 811.75 217.405 811.75 217.814C811.75 218.223 811.595 218.573 811.285 218.864C810.982 219.156 810.616 219.301 810.188 219.301ZM821.493 221.681V223.54H814.095V221.681H821.493ZM816.251 218.26H818.445V231.868C818.445 232.487 818.534 232.952 818.714 233.262C818.9 233.566 819.136 233.77 819.421 233.875C819.712 233.975 820.019 234.024 820.341 234.024C820.582 234.024 820.781 234.012 820.936 233.987C821.091 233.956 821.214 233.931 821.307 233.913L821.754 235.883C821.605 235.939 821.397 235.995 821.131 236.05C820.864 236.112 820.527 236.143 820.118 236.143C819.498 236.143 818.891 236.01 818.296 235.744C817.707 235.477 817.218 235.071 816.827 234.526C816.443 233.981 816.251 233.293 816.251 232.463V218.26ZM830.625 236.255C829.25 236.255 828.063 235.951 827.066 235.344C826.074 234.731 825.309 233.875 824.77 232.779C824.237 231.676 823.97 230.393 823.97 228.931C823.97 227.468 824.237 226.179 824.77 225.064C825.309 223.942 826.059 223.069 827.019 222.443C827.986 221.811 829.113 221.495 830.402 221.495C831.146 221.495 831.88 221.619 832.605 221.867C833.33 222.114 833.99 222.517 834.585 223.075C835.18 223.626 835.654 224.358 836.007 225.268C836.36 226.179 836.537 227.301 836.537 228.633V229.563H825.532V227.667H834.306C834.306 226.861 834.145 226.142 833.823 225.51C833.507 224.878 833.054 224.379 832.466 224.014C831.883 223.648 831.196 223.465 830.402 223.465C829.529 223.465 828.773 223.682 828.134 224.116C827.502 224.543 827.016 225.101 826.675 225.789C826.334 226.477 826.164 227.214 826.164 228.001V229.265C826.164 230.343 826.35 231.257 826.722 232.007C827.1 232.751 827.623 233.318 828.292 233.708C828.962 234.092 829.739 234.284 830.625 234.284C831.202 234.284 831.722 234.204 832.187 234.043C832.658 233.875 833.064 233.628 833.405 233.299C833.745 232.965 834.009 232.549 834.195 232.054L836.314 232.649C836.091 233.367 835.716 233.999 835.189 234.545C834.662 235.084 834.012 235.505 833.237 235.809C832.463 236.106 831.592 236.255 830.625 236.255ZM845.674 236.255C844.335 236.255 843.183 235.939 842.216 235.307C841.249 234.675 840.506 233.804 839.985 232.695C839.465 231.586 839.205 230.319 839.205 228.893C839.205 227.443 839.471 226.164 840.004 225.055C840.543 223.939 841.293 223.069 842.253 222.443C843.22 221.811 844.348 221.495 845.637 221.495C846.64 221.495 847.545 221.681 848.351 222.052C849.156 222.424 849.816 222.945 850.33 223.614C850.845 224.283 851.164 225.064 851.288 225.956H849.094C848.927 225.306 848.555 224.729 847.979 224.227C847.409 223.719 846.64 223.465 845.674 223.465C844.819 223.465 844.069 223.688 843.424 224.135C842.786 224.574 842.287 225.197 841.928 226.003C841.575 226.802 841.398 227.741 841.398 228.819C841.398 229.922 841.572 230.883 841.919 231.7C842.272 232.518 842.768 233.154 843.406 233.606C844.05 234.058 844.806 234.284 845.674 234.284C846.244 234.284 846.761 234.185 847.226 233.987C847.691 233.789 848.084 233.504 848.406 233.132C848.729 232.76 848.958 232.314 849.094 231.793H851.288C851.164 232.636 850.857 233.395 850.368 234.071C849.884 234.74 849.243 235.273 848.444 235.669C847.65 236.06 846.727 236.255 845.674 236.255ZM860.703 221.681V223.54H853.305V221.681H860.703ZM855.461 218.26H857.655V231.868C857.655 232.487 857.745 232.952 857.924 233.262C858.11 233.566 858.346 233.77 858.631 233.875C858.922 233.975 859.229 234.024 859.551 234.024C859.793 234.024 859.991 234.012 860.146 233.987C860.301 233.956 860.425 233.931 860.518 233.913L860.964 235.883C860.815 235.939 860.607 235.995 860.341 236.05C860.075 236.112 859.737 236.143 859.328 236.143C858.708 236.143 858.101 236.01 857.506 235.744C856.917 235.477 856.428 235.071 856.037 234.526C855.653 233.981 855.461 233.293 855.461 232.463V218.26ZM873 230.12V221.681H875.194V235.958H873V233.541H872.852C872.517 234.266 871.997 234.882 871.29 235.391C870.584 235.892 869.692 236.143 868.613 236.143C867.721 236.143 866.928 235.948 866.234 235.558C865.54 235.161 864.995 234.566 864.598 233.773C864.201 232.974 864.003 231.967 864.003 230.752V221.681H866.197V230.604C866.197 231.645 866.488 232.475 867.07 233.095C867.659 233.714 868.409 234.024 869.32 234.024C869.865 234.024 870.42 233.885 870.984 233.606C871.554 233.327 872.031 232.9 872.415 232.323C872.805 231.747 873 231.013 873 230.12ZM879.212 235.958V221.681H881.331V223.837H881.48C881.74 223.131 882.211 222.557 882.892 222.118C883.574 221.678 884.342 221.458 885.198 221.458C885.359 221.458 885.56 221.461 885.802 221.467C886.043 221.473 886.226 221.482 886.35 221.495V223.726C886.276 223.707 886.105 223.679 885.839 223.642C885.579 223.599 885.303 223.577 885.012 223.577C884.318 223.577 883.698 223.722 883.153 224.014C882.614 224.299 882.186 224.695 881.87 225.203C881.56 225.705 881.405 226.279 881.405 226.923V235.958H879.212ZM894.502 236.255C893.126 236.255 891.939 235.951 890.942 235.344C889.95 234.731 889.185 233.875 888.646 232.779C888.113 231.676 887.847 230.393 887.847 228.931C887.847 227.468 888.113 226.179 888.646 225.064C889.185 223.942 889.935 223.069 890.895 222.443C891.862 221.811 892.99 221.495 894.279 221.495C895.022 221.495 895.757 221.619 896.482 221.867C897.207 222.114 897.866 222.517 898.461 223.075C899.056 223.626 899.53 224.358 899.883 225.268C900.237 226.179 900.413 227.301 900.413 228.633V229.563H889.408V227.667H898.182C898.182 226.861 898.021 226.142 897.699 225.51C897.383 224.878 896.931 224.379 896.342 224.014C895.76 223.648 895.072 223.465 894.279 223.465C893.405 223.465 892.649 223.682 892.011 224.116C891.379 224.543 890.892 225.101 890.551 225.789C890.211 226.477 890.04 227.214 890.04 228.001V229.265C890.04 230.343 890.226 231.257 890.598 232.007C890.976 232.751 891.499 233.318 892.169 233.708C892.838 234.092 893.616 234.284 894.502 234.284C895.078 234.284 895.599 234.204 896.063 234.043C896.534 233.875 896.94 233.628 897.281 233.299C897.622 232.965 897.885 232.549 898.071 232.054L900.19 232.649C899.967 233.367 899.592 233.999 899.065 234.545C898.539 235.084 897.888 235.505 897.114 235.809C896.339 236.106 895.468 236.255 894.502 236.255ZM913.863 224.878L911.892 225.436C911.768 225.107 911.586 224.788 911.344 224.478C911.108 224.162 910.786 223.902 910.377 223.698C909.968 223.493 909.445 223.391 908.806 223.391C907.933 223.391 907.205 223.592 906.622 223.995C906.046 224.392 905.758 224.897 905.758 225.51C905.758 226.055 905.956 226.486 906.353 226.802C906.749 227.118 907.369 227.382 908.212 227.592L910.331 228.113C911.607 228.423 912.558 228.897 913.184 229.535C913.81 230.167 914.123 230.982 914.123 231.979C914.123 232.797 913.888 233.528 913.417 234.173C912.952 234.817 912.301 235.325 911.465 235.697C910.628 236.069 909.655 236.255 908.546 236.255C907.09 236.255 905.885 235.939 904.93 235.307C903.976 234.675 903.372 233.752 903.118 232.537L905.2 232.017C905.398 232.785 905.773 233.361 906.325 233.745C906.882 234.13 907.61 234.322 908.509 234.322C909.531 234.322 910.343 234.105 910.944 233.671C911.551 233.231 911.855 232.704 911.855 232.091C911.855 231.595 911.682 231.18 911.335 230.845C910.988 230.505 910.455 230.251 909.736 230.083L907.356 229.526C906.049 229.216 905.089 228.735 904.475 228.085C903.868 227.428 903.564 226.607 903.564 225.622C903.564 224.816 903.79 224.104 904.243 223.484C904.701 222.864 905.324 222.378 906.111 222.025C906.904 221.671 907.803 221.495 908.806 221.495C910.219 221.495 911.328 221.805 912.134 222.424C912.946 223.044 913.522 223.862 913.863 224.878Z" fill="#0008C3"/>
</svg>
